<?xml version="1.0" encoding="UTF-8" standalone="no"?><!DOCTYPE svg PUBLIC "-//W3C//DTD SVG 1.1//EN" "http://www.w3.org/Graphics/SVG/1.1/DTD/svg11.dtd"><svg width="100%" height="100%" viewBox="0 0 413 164" version="1.1" xmlns="http://www.w3.org/2000/svg" xmlns:xlink="http://www.w3.org/1999/xlink" xml:space="preserve" xmlns:serif="http://www.serif.com/" style="fill-rule:evenodd;clip-rule:evenodd;stroke-linejoin:round;stroke-miterlimit:2;"><g id="Drawing_Logo_Project"><g id="Drawing_Logo"><path d="M99.8,82.766c0,0 -45.293,-26.86 -89.112,-6.901l4.145,8.859c0,0 42.038,-8.17 67.707,9.099l17.26,-11.057Z" style="fill:#f8c198;fill-rule:nonzero;"/><path d="M0.143,86.91c0.091,1.936 1.054,3.911 2.764,4.821c6.689,3.559 13.541,-8.973 10.034,-14.071c-5.395,-7.845 -13.064,3.592 -12.798,9.25Z" style="fill:#f8c198;fill-rule:nonzero;"/><path d="M88.419,32.609c0,-13.651 -11.083,-24.735 -24.734,-24.735l-32.412,0c-13.652,0 -24.735,11.084 -24.735,24.735l0,100.913c0,13.651 11.083,24.735 24.735,24.735l32.412,0c13.651,0 24.734,-11.084 24.734,-24.735l0,-100.913Z" style="fill:#222739;"/><rect x="15.783" y="18.505" width="63.392" height="122.38" style="fill:#f60948;"/><ellipse cx="47.479" cy="149.7" rx="5.054" ry="5.186" style="fill:#dbdbdb;"/><ellipse cx="37.875" cy="12.801" rx="1.011" ry="1.037" style="fill:#dbdbdb;"/><path d="M58.093,12.801c0,-0.43 -0.349,-0.778 -0.778,-0.778l-14.113,0c-0.429,0 -0.778,0.348 -0.778,0.778c0,0.429 0.349,0.777 0.778,0.777l14.113,0c0.429,0 0.778,-0.348 0.778,-0.777Z" style="fill:#dbdbdb;"/><path d="M19.395,21.665l59.78,0l0,-3.16l-63.392,0l0,122.38l3.612,0l0,-119.22Z" style="fill-opacity:0.2;fill-rule:nonzero;"/><path d="M100.238,156.819l0,0c14.477,1.079 27.296,-9.897 28.459,-24.368l2.19,-28.281c1.079,-14.477 -9.897,-27.296 -24.367,-28.459l0,0c-12.846,-0.954 -24.629,7.556 -27.763,20.05c-0.574,2.361 -0.597,4.823 -0.067,7.195l5.319,24.29c-1.126,14.527 1.702,28.448 16.229,29.573Z" style="fill:#e4e4e4;fill-rule:nonzero;"/><path d="M95.736,72.86c0.405,-5.229 4.574,-9.177 9.303,-8.811c4.73,0.367 8.241,4.909 7.836,10.138c-0.405,5.229 -4.574,9.177 -9.303,8.811c-4.73,-0.366 -8.241,-4.909 -7.836,-10.138Z" style="fill:#f5b89c;"/><path d="M120.294,90.198c0,0 14.169,45.786 -2.121,53.382l-25.419,19.772l-9.066,-11.17c0,0 26.96,-14.821 29.929,-24.858c2.969,-10.036 -6.972,-32.44 -6.972,-32.44c0,0 7.31,-11.216 13.649,-4.686Z" style="fill:#f8c198;fill-rule:nonzero;"/><path d="M72.989,157.157c0.241,-3.11 4.945,-5.286 10.498,-4.856c5.553,0.43 9.867,3.304 9.626,6.414c-0.241,3.11 -4.945,5.286 -10.499,4.856c-5.553,-0.43 -9.866,-3.304 -9.625,-6.414Z" style="fill:#f8c198;"/><circle cx="106.685" cy="42.386" r="28.901" style="fill:#f8c198;"/><path d="M191.566,57.53c-3.536,-3.452 -7.653,-6.267 -11.118,-9.786c-3.555,-3.611 -5.875,-7.929 -7.832,-12.561c-3.828,-9.056 -6.461,-18.872 -13.303,-26.28c-8.44,-9.14 -19.661,-9.82 -31.332,-8.235c-10.32,1.421 -20.542,3.476 -30.609,6.154c-0.283,-0.116 -0.561,-0.241 -0.849,-0.35c-5.655,-2.126 -12.303,1.101 -14.329,6.73c-0.559,1.563 -0.753,3.234 -0.567,4.883c-0.8,1.537 -0.764,3.435 0.817,5.106c7.505,7.933 13.548,15.391 16.126,26.199c2.399,10.056 5.679,18.234 14.433,24.374c8.746,6.134 19.143,11.003 28.995,15.057c10.655,4.385 22.078,7.24 33.664,6.37c8.478,-0.637 17.932,-3.749 22.327,-11.619c5.051,-9.045 0.38,-19.401 -6.423,-26.042Z" style="fill:url(#_Linear1);fill-rule:nonzero;"/><path d="M189.961,57.186c-3.424,-3.343 -7.412,-6.068 -10.768,-9.477c-3.442,-3.497 -5.689,-7.678 -7.584,-12.164c-3.707,-8.77 -6.258,-18.276 -12.883,-25.45c-8.174,-8.852 -19.04,-9.51 -30.343,-7.975c-9.994,1.376 -19.893,3.366 -29.642,5.96c-0.275,-0.112 -0.543,-0.234 -0.823,-0.339c-5.476,-2.059 -11.914,1.065 -13.877,6.517c-0.541,1.514 -0.728,3.132 -0.548,4.729c-0.775,1.489 -0.74,3.326 0.791,4.945c7.268,7.682 13.12,14.905 15.617,25.371c2.323,9.739 5.499,17.659 13.977,23.605c8.47,5.94 18.538,10.656 28.08,14.582c10.318,4.246 21.38,7.011 32.6,6.168c8.211,-0.617 17.366,-3.631 21.623,-11.252c4.892,-8.76 0.368,-18.788 -6.22,-25.22Z" style="fill:#865a61;fill-rule:nonzero;"/></g><g transform="matrix(1,0,0,1,-180,-697.436)"><text x="400.116px" y="768.248px" style="font-family:'Roboto-Medium', 'Roboto Medium';font-weight:500;font-size:40px;">HelperLine</text><text x="400.116px" y="820.248px" style="font-family:'Roboto-Medium', 'Roboto Medium';font-weight:500;font-size:40px;fill:#f60948;">Pr<tspan x="439.042px " y="820.248px ">o</tspan>ject</text></g></g><defs><linearGradient id="_Linear1" x1="0" y1="0" x2="1" y2="0" gradientUnits="userSpaceOnUse" gradientTransform="matrix(5.83831e-15,-95.3468,95.3468,5.83831e-15,140.615,95.3468)"><stop offset="0" style="stop-color:#808080;stop-opacity:0.25"/><stop offset="0.54" style="stop-color:#808080;stop-opacity:0.12"/><stop offset="1" style="stop-color:#808080;stop-opacity:0.1"/></linearGradient></defs></svg>