<?xml version="1.0" encoding="UTF-8" standalone="no"?><!DOCTYPE svg PUBLIC "-//W3C//DTD SVG 1.1//EN" "http://www.w3.org/Graphics/SVG/1.1/DTD/svg11.dtd"><svg width="100%" height="100%" viewBox="0 0 871 315" version="1.1" xmlns="http://www.w3.org/2000/svg" xmlns:xlink="http://www.w3.org/1999/xlink" xml:space="preserve" xmlns:serif="http://www.serif.com/" style="fill-rule:evenodd;clip-rule:evenodd;stroke-linecap:round;stroke-linejoin:round;stroke-miterlimit:1.5;"><g id="Drawing_Tech_Setup"><path d="M741,207l-310,-120l-310,119.391" style="fill:none;stroke:#222739;stroke-opacity:0.4;stroke-width:4.5px;stroke-dasharray:13.5,13.5,0,0;"/><g><path d="M481.348,139.671l0,-135.293l-100.696,0l0,135.293l100.696,0Z" style="fill:#2f2e41;"/><rect x="363.354" y="0.247" width="135.293" height="53.704" style="fill:#3f3d56;"/><rect x="363.354" y="60.148" width="135.293" height="53.704" style="fill:#3f3d56;"/><rect x="363.354" y="120.049" width="135.293" height="53.704" style="fill:#3f3d56;"/><rect x="363.354" y="23.018" width="135.293" height="8.262" style="fill:#f60948;"/><rect x="363.354" y="82.919" width="135.293" height="8.262" style="fill:#f60948;"/><rect x="363.354" y="142.819" width="135.293" height="8.262" style="fill:#f60948;"/><circle cx="472.311" cy="7.993" r="3.098" style="fill:#f60948;"/><circle cx="483.155" cy="7.993" r="3.098" style="fill:#f60948;"/><circle cx="493.999" cy="7.993" r="3.098" style="fill:#f60948;"/><circle cx="472.311" cy="66.861" r="3.098" style="fill:#f60948;"/><circle cx="483.155" cy="66.861" r="3.098" style="fill:#f60948;"/><circle cx="493.999" cy="66.861" r="3.098" style="fill:#f60948;"/><circle cx="472.311" cy="125.729" r="3.098" style="fill:#f60948;"/><circle cx="483.155" cy="125.729" r="3.098" style="fill:#f60948;"/><circle cx="493.999" cy="125.729" r="3.098" style="fill:#f60948;"/></g><g><g><rect x="677.542" y="167.626" width="126.971" height="81.318" style="fill:#e6e6e6;"/><rect x="687.114" y="190.375" width="105.271" height="39.78" style="fill:#fff;"/><rect x="706.293" y="197.267" width="25.265" height="1.444" style="fill:#e6e6e6;"/><rect x="706.268" y="202.568" width="39.093" height="1.444" style="fill:#f60948;"/><rect x="706.268" y="207.562" width="30.679" height="1.444" style="fill:#e6e6e6;"/><rect x="706.268" y="212.557" width="18.046" height="1.444" style="fill:#e6e6e6;"/><rect x="706.268" y="217.551" width="27.07" height="1.444" style="fill:#e6e6e6;"/><rect x="694.836" y="196.852" width="2.887" height="2.887" style="fill:#e6e6e6;"/><rect x="694.836" y="201.846" width="2.887" height="2.887" style="fill:#f60948;"/><rect x="694.836" y="206.841" width="2.887" height="2.887" style="fill:#e6e6e6;"/><rect x="694.836" y="211.835" width="2.887" height="2.887" style="fill:#e6e6e6;"/><rect x="694.836" y="216.829" width="2.887" height="2.887" style="fill:#e6e6e6;"/><rect x="761.369" y="195.36" width="25.85" height="25.85" style="fill:#e6e6e6;"/><rect x="677.488" y="167.554" width="126.971" height="5.394" style="fill:#f60948;"/><circle cx="681.496" cy="170.311" r="1.083" style="fill:#fff;"/><circle cx="685.291" cy="170.311" r="1.083" style="fill:#fff;"/><circle cx="689.086" cy="170.311" r="1.083" style="fill:#fff;"/></g><text x="609.896px" y="308.25px" style="font-family:'Roboto-Medium', 'Roboto Medium';font-weight:500;font-size:30px;fill:#f60948;">https:/<tspan x="695.063px " y="308.25px ">/</tspan>helperline.io</text></g><g><text x="-0.868px" y="308.25px" style="font-family:'Roboto-Medium', 'Roboto Medium';font-weight:500;font-size:30px;fill:#f60948;">+49 30 2555 5305</text><g><path d="M148.224,174.696c0,-9.078 -7.37,-16.448 -16.448,-16.448l-21.552,0c-9.078,0 -16.448,7.37 -16.448,16.448l0,67.104c0,9.078 7.37,16.448 16.448,16.448l21.552,0c9.078,0 16.448,-7.37 16.448,-16.448l0,-67.104Z" style="fill:#222739;"/><rect x="99.923" y="165.317" width="42.154" height="81.379" style="fill:#e6e6e6;"/><ellipse cx="121" cy="252.559" rx="3.361" ry="3.448" style="fill:#e6e6e6;"/><ellipse cx="114.614" cy="161.524" rx="0.672" ry="0.69" style="fill:#e6e6e6;"/><path d="M128.058,161.524c0,-0.285 -0.232,-0.517 -0.517,-0.517l-9.385,0c-0.285,0 -0.517,0.232 -0.517,0.517c0,0.286 0.232,0.517 0.517,0.517l9.385,0c0.285,0 0.517,-0.231 0.517,-0.517Z" style="fill:#e6e6e6;"/><path d="M102.325,167.419l39.752,0l0,-2.102l-42.154,0l0,81.38l2.402,0l0,-79.278Z" style="fill-opacity:0.2;fill-rule:nonzero;"/></g></g></g></svg>