<?xml version="1.0" encoding="UTF-8" standalone="no"?><!DOCTYPE svg PUBLIC "-//W3C//DTD SVG 1.1//EN" "http://www.w3.org/Graphics/SVG/1.1/DTD/svg11.dtd"><svg width="100%" height="100%" viewBox="0 0 413 164" version="1.1" xmlns="http://www.w3.org/2000/svg" xmlns:xlink="http://www.w3.org/1999/xlink" xml:space="preserve" xmlns:serif="http://www.serif.com/" style="fill-rule:evenodd;clip-rule:evenodd;stroke-linejoin:round;stroke-miterlimit:2;"><g id="Drawing_Logo_Project"><g id="Drawing_Logo"><path d="M99.732,82.766c0,0 -45.293,-26.86 -89.112,-6.901l4.145,8.859c0,0 42.038,-8.17 67.706,9.099l17.261,-11.057Z" style="fill:#f8c198;fill-rule:nonzero;"/><path d="M0.075,86.91c0.091,1.936 1.053,3.911 2.764,4.821c6.689,3.559 13.541,-8.973 10.034,-14.071c-5.395,-7.845 -13.064,3.592 -12.798,9.25Z" style="fill:#f8c198;fill-rule:nonzero;"/><path d="M88.351,32.609c0,-13.651 -11.083,-24.735 -24.735,-24.735l-32.411,0c-13.652,0 -24.735,11.084 -24.735,24.735l0,100.913c0,13.651 11.083,24.735 24.735,24.735l32.411,0c13.652,0 24.735,-11.084 24.735,-24.735l0,-100.913Z" style="fill:#222739;"/><rect x="15.715" y="18.505" width="63.392" height="122.38" style="fill:#f60948;"/><ellipse cx="47.411" cy="149.7" rx="5.054" ry="5.186" style="fill:#dbdbdb;"/><ellipse cx="37.807" cy="12.801" rx="1.011" ry="1.037" style="fill:#dbdbdb;"/><path d="M58.025,12.801c0,-0.43 -0.349,-0.778 -0.778,-0.778l-14.113,0c-0.429,0 -0.778,0.348 -0.778,0.778c0,0.429 0.349,0.777 0.778,0.777l14.113,0c0.429,0 0.778,-0.348 0.778,-0.777Z" style="fill:#dbdbdb;"/><path d="M19.327,21.665l59.779,0l0,-3.16l-63.391,0l0,122.38l3.612,0l0,-119.22Z" style="fill-opacity:0.2;fill-rule:nonzero;"/><path d="M100.17,156.819l0,0c14.477,1.079 27.296,-9.897 28.459,-24.368l2.19,-28.281c1.079,-14.477 -9.897,-27.296 -24.367,-28.459l0,0c-12.846,-0.954 -24.629,7.556 -27.763,20.05c-0.574,2.361 -0.597,4.823 -0.067,7.195l5.318,24.29c-1.125,14.527 1.702,28.448 16.23,29.573Z" style="fill:#e4e4e4;fill-rule:nonzero;"/><path d="M95.668,72.86c0.405,-5.229 4.573,-9.177 9.303,-8.811c4.73,0.367 8.241,4.909 7.836,10.138c-0.405,5.229 -4.574,9.177 -9.304,8.811c-4.729,-0.366 -8.24,-4.909 -7.835,-10.138Z" style="fill:#f5b89c;"/><path d="M120.226,90.198c0,0 14.168,45.786 -2.121,53.382l-25.42,19.772l-9.065,-11.17c0,0 26.96,-14.821 29.929,-24.858c2.968,-10.036 -6.972,-32.44 -6.972,-32.44c0,0 7.31,-11.216 13.649,-4.686Z" style="fill:#f8c198;fill-rule:nonzero;"/><path d="M72.921,157.157c0.241,-3.11 4.945,-5.286 10.498,-4.856c5.553,0.43 9.866,3.304 9.626,6.414c-0.241,3.11 -4.945,5.286 -10.499,4.856c-5.553,-0.43 -9.866,-3.304 -9.625,-6.414Z" style="fill:#f8c198;"/><circle cx="106.617" cy="42.386" r="28.901" style="fill:#f8c198;"/><path d="M191.498,57.53c-3.536,-3.452 -7.653,-6.267 -11.119,-9.786c-3.554,-3.611 -5.874,-7.929 -7.831,-12.561c-3.828,-9.056 -6.462,-18.872 -13.303,-26.28c-8.441,-9.14 -19.661,-9.82 -31.332,-8.235c-10.32,1.421 -20.542,3.476 -30.609,6.154c-0.284,-0.116 -0.561,-0.241 -0.85,-0.35c-5.655,-2.126 -12.302,1.101 -14.329,6.73c-0.558,1.563 -0.752,3.234 -0.566,4.883c-0.8,1.537 -0.764,3.435 0.817,5.106c7.504,7.933 13.548,15.391 16.126,26.199c2.399,10.056 5.679,18.234 14.433,24.374c8.746,6.134 19.143,11.003 28.995,15.057c10.655,4.385 22.078,7.24 33.664,6.37c8.477,-0.637 17.932,-3.749 22.327,-11.619c5.051,-9.045 0.38,-19.401 -6.423,-26.042Z" style="fill:url(#_Linear1);fill-rule:nonzero;"/><path d="M189.893,57.186c-3.424,-3.343 -7.412,-6.068 -10.768,-9.477c-3.442,-3.497 -5.689,-7.678 -7.585,-12.164c-3.706,-8.77 -6.257,-18.276 -12.882,-25.45c-8.174,-8.852 -19.04,-9.51 -30.343,-7.975c-9.994,1.376 -19.893,3.366 -29.642,5.96c-0.275,-0.112 -0.543,-0.234 -0.823,-0.339c-5.477,-2.059 -11.915,1.065 -13.877,6.517c-0.541,1.514 -0.728,3.132 -0.548,4.729c-0.775,1.489 -0.74,3.326 0.791,4.945c7.267,7.682 13.12,14.905 15.617,25.371c2.323,9.739 5.499,17.659 13.977,23.605c8.47,5.94 18.538,10.656 28.079,14.582c10.319,4.246 21.381,7.011 32.601,6.168c8.21,-0.617 17.366,-3.631 21.623,-11.252c4.892,-8.76 0.368,-18.788 -6.22,-25.22Z" style="fill:#865a61;fill-rule:nonzero;"/></g><g transform="matrix(1,0,0,1,-180.068,-697.436)"><g transform="matrix(40,0,0,40,400.116,768.248)"><path d="M0.637,0l-0.123,0l0,-0.316l-0.318,0l0,0.316l-0.124,0l0,-0.711l0.124,0l0,0.296l0.318,0l0,-0.296l0.123,0l0,0.711Z" style="fill-rule:nonzero;"/></g><g transform="matrix(40,0,0,40,428.534,768.248)"><path d="M0.293,0.01c-0.075,0 -0.136,-0.024 -0.182,-0.071c-0.047,-0.048 -0.07,-0.111 -0.07,-0.189l0,-0.015c0,-0.053 0.01,-0.1 0.03,-0.141c0.02,-0.042 0.049,-0.074 0.086,-0.097c0.037,-0.024 0.078,-0.035 0.123,-0.035c0.072,0 0.127,0.023 0.167,0.069c0.039,0.046 0.058,0.111 0.058,0.195l0,0.047l-0.345,0c0.004,0.044 0.018,0.079 0.044,0.104c0.025,0.025 0.058,0.038 0.096,0.038c0.055,0 0.099,-0.022 0.133,-0.066l0.064,0.061c-0.021,0.032 -0.049,0.056 -0.085,0.074c-0.035,0.017 -0.075,0.026 -0.119,0.026Zm-0.014,-0.453c-0.032,0 -0.059,0.012 -0.079,0.034c-0.02,0.023 -0.032,0.055 -0.038,0.096l0.226,0l0,-0.009c-0.002,-0.04 -0.013,-0.07 -0.032,-0.09c-0.018,-0.021 -0.044,-0.031 -0.077,-0.031Z" style="fill-rule:nonzero;"/></g><g transform="matrix(40,0,0,40,449.999,768.248)"><rect x="0.068" y="-0.75" width="0.119" height="0.75" style="fill-rule:nonzero;"/></g><g transform="matrix(40,0,0,40,460.214,768.248)"><path d="M0.523,-0.259c0,0.082 -0.018,0.147 -0.055,0.196c-0.037,0.048 -0.087,0.073 -0.15,0.073c-0.058,0 -0.104,-0.019 -0.139,-0.057l0,0.25l-0.118,0l0,-0.731l0.109,0l0.005,0.053c0.035,-0.042 0.082,-0.063 0.142,-0.063c0.064,0 0.115,0.024 0.152,0.072c0.036,0.048 0.054,0.115 0.054,0.2l0,0.007Zm-0.118,-0.01c0,-0.053 -0.01,-0.095 -0.031,-0.126c-0.021,-0.03 -0.051,-0.046 -0.09,-0.046c-0.049,0 -0.084,0.02 -0.105,0.06l0,0.235c0.022,0.041 0.057,0.061 0.106,0.061c0.037,0 0.067,-0.015 0.088,-0.046c0.022,-0.03 0.032,-0.076 0.032,-0.138Z" style="fill-rule:nonzero;"/></g><g transform="matrix(40,0,0,40,482.733,768.248)"><path d="M0.293,0.01c-0.075,0 -0.136,-0.024 -0.182,-0.071c-0.047,-0.048 -0.07,-0.111 -0.07,-0.189l0,-0.015c0,-0.053 0.01,-0.1 0.03,-0.141c0.02,-0.042 0.049,-0.074 0.086,-0.097c0.037,-0.024 0.078,-0.035 0.123,-0.035c0.072,0 0.127,0.023 0.167,0.069c0.039,0.046 0.058,0.111 0.058,0.195l0,0.047l-0.345,0c0.004,0.044 0.018,0.079 0.044,0.104c0.025,0.025 0.058,0.038 0.096,0.038c0.055,0 0.099,-0.022 0.133,-0.066l0.064,0.061c-0.021,0.032 -0.049,0.056 -0.085,0.074c-0.035,0.017 -0.075,0.026 -0.119,0.026Zm-0.014,-0.453c-0.032,0 -0.059,0.012 -0.079,0.034c-0.02,0.023 -0.032,0.055 -0.038,0.096l0.226,0l0,-0.009c-0.002,-0.04 -0.013,-0.07 -0.032,-0.09c-0.018,-0.021 -0.044,-0.031 -0.077,-0.031Z" style="fill-rule:nonzero;"/></g><g transform="matrix(40,0,0,40,504.198,768.248)"><path d="M0.337,-0.42c-0.015,-0.003 -0.031,-0.004 -0.048,-0.004c-0.054,0 -0.091,0.021 -0.11,0.063l0,0.361l-0.118,0l0,-0.528l0.113,0l0.003,0.059c0.028,-0.046 0.068,-0.069 0.119,-0.069c0.017,0 0.031,0.002 0.042,0.007l-0.001,0.111Z" style="fill-rule:nonzero;"/></g><g transform="matrix(40,0,0,40,518.261,768.248)"><path d="M0.196,-0.099l0.323,0l0,0.099l-0.447,0l0,-0.711l0.124,0l0,0.612Z" style="fill-rule:nonzero;"/></g><g transform="matrix(40,0,0,40,539.901,768.248)"><path d="M0.187,0l-0.119,0l0,-0.528l0.119,0l0,0.528Zm-0.126,-0.666c0,-0.018 0.006,-0.033 0.017,-0.045c0.012,-0.012 0.028,-0.018 0.05,-0.018c0.021,0 0.038,0.006 0.05,0.018c0.011,0.012 0.017,0.027 0.017,0.045c0,0.018 -0.006,0.033 -0.017,0.045c-0.012,0.012 -0.029,0.018 -0.05,0.018c-0.022,0 -0.038,-0.006 -0.05,-0.018c-0.011,-0.012 -0.017,-0.027 -0.017,-0.045Z" style="fill-rule:nonzero;"/></g><g transform="matrix(40,0,0,40,550.116,768.248)"><path d="M0.171,-0.528l0.003,0.061c0.039,-0.047 0.091,-0.071 0.154,-0.071c0.11,0 0.166,0.063 0.168,0.189l0,0.349l-0.119,0l0,-0.342c0,-0.034 -0.007,-0.059 -0.021,-0.075c-0.015,-0.016 -0.038,-0.024 -0.071,-0.024c-0.048,0 -0.084,0.022 -0.107,0.065l0,0.376l-0.119,0l0,-0.528l0.112,0Z" style="fill-rule:nonzero;"/></g><g transform="matrix(40,0,0,40,572.362,768.248)"><path d="M0.293,0.01c-0.075,0 -0.136,-0.024 -0.182,-0.071c-0.047,-0.048 -0.07,-0.111 -0.07,-0.189l0,-0.015c0,-0.053 0.01,-0.1 0.03,-0.141c0.02,-0.042 0.049,-0.074 0.086,-0.097c0.037,-0.024 0.078,-0.035 0.123,-0.035c0.072,0 0.127,0.023 0.167,0.069c0.039,0.046 0.058,0.111 0.058,0.195l0,0.047l-0.345,0c0.004,0.044 0.018,0.079 0.044,0.104c0.025,0.025 0.058,0.038 0.096,0.038c0.055,0 0.099,-0.022 0.133,-0.066l0.064,0.061c-0.021,0.032 -0.049,0.056 -0.085,0.074c-0.035,0.017 -0.075,0.026 -0.119,0.026Zm-0.014,-0.453c-0.032,0 -0.059,0.012 -0.079,0.034c-0.02,0.023 -0.032,0.055 -0.038,0.096l0.226,0l0,-0.009c-0.002,-0.04 -0.013,-0.07 -0.032,-0.09c-0.018,-0.021 -0.044,-0.031 -0.077,-0.031Z" style="fill-rule:nonzero;"/></g><g transform="matrix(40,0,0,40,400.116,820.248)"><path d="M0.196,-0.264l0,0.264l-0.124,0l0,-0.711l0.272,0c0.08,0 0.143,0.021 0.189,0.062c0.047,0.041 0.071,0.096 0.071,0.164c0,0.07 -0.023,0.124 -0.069,0.163c-0.046,0.038 -0.11,0.058 -0.192,0.058l-0.147,0Zm0,-0.099l0.148,0c0.044,0 0.078,-0.011 0.101,-0.031c0.023,-0.021 0.034,-0.051 0.034,-0.09c0,-0.038 -0.011,-0.069 -0.035,-0.092c-0.023,-0.023 -0.055,-0.035 -0.096,-0.035l-0.152,0l0,0.248Z" style="fill:#f60948;fill-rule:nonzero;"/></g><g transform="matrix(40,0,0,40,425.682,820.248)"><path d="M0.337,-0.42c-0.015,-0.003 -0.031,-0.004 -0.048,-0.004c-0.054,0 -0.091,0.021 -0.11,0.063l0,0.361l-0.118,0l0,-0.528l0.113,0l0.003,0.059c0.028,-0.046 0.068,-0.069 0.119,-0.069c0.017,0 0.031,0.002 0.042,0.007l-0.001,0.111Z" style="fill:#f60948;fill-rule:nonzero;"/></g><g transform="matrix(40,0,0,40,439.042,820.248)"><path d="M0.039,-0.269c0,-0.052 0.01,-0.098 0.03,-0.14c0.021,-0.041 0.05,-0.073 0.087,-0.096c0.037,-0.022 0.08,-0.033 0.128,-0.033c0.071,0 0.129,0.023 0.173,0.069c0.045,0.046 0.069,0.107 0.072,0.182l0.001,0.028c0,0.052 -0.01,0.099 -0.03,0.14c-0.02,0.041 -0.049,0.073 -0.086,0.095c-0.037,0.023 -0.081,0.034 -0.129,0.034c-0.075,0 -0.135,-0.025 -0.179,-0.075c-0.045,-0.049 -0.067,-0.116 -0.067,-0.198l0,-0.006Zm0.118,0.01c0,0.055 0.011,0.097 0.034,0.128c0.022,0.031 0.054,0.046 0.094,0.046c0.04,0 0.071,-0.016 0.093,-0.047c0.022,-0.031 0.034,-0.077 0.034,-0.137c0,-0.053 -0.012,-0.096 -0.035,-0.127c-0.023,-0.031 -0.054,-0.047 -0.093,-0.047c-0.039,0 -0.07,0.016 -0.093,0.046c-0.022,0.031 -0.034,0.077 -0.034,0.138Z" style="fill:#f60948;fill-rule:nonzero;"/></g><g transform="matrix(40,0,0,40,461.815,820.248)"><path d="M0.185,-0.528l0,0.575c0,0.054 -0.014,0.095 -0.041,0.124c-0.027,0.028 -0.066,0.042 -0.118,0.042c-0.021,0 -0.042,-0.002 -0.063,-0.008l0,-0.094c0.013,0.003 0.027,0.005 0.042,0.005c0.04,0 0.06,-0.022 0.061,-0.065l0,-0.579l0.119,0Zm-0.129,-0.138c0,-0.018 0.005,-0.033 0.017,-0.045c0.012,-0.012 0.028,-0.018 0.05,-0.018c0.021,0 0.038,0.006 0.049,0.018c0.012,0.012 0.018,0.027 0.018,0.045c0,0.018 -0.006,0.033 -0.018,0.045c-0.011,0.012 -0.028,0.018 -0.049,0.018c-0.022,0 -0.038,-0.006 -0.05,-0.018c-0.012,-0.012 -0.017,-0.027 -0.017,-0.045Z" style="fill:#f60948;fill-rule:nonzero;"/></g><g transform="matrix(40,0,0,40,471.835,820.248)"><path d="M0.293,0.01c-0.075,0 -0.136,-0.024 -0.182,-0.071c-0.047,-0.048 -0.07,-0.111 -0.07,-0.189l0,-0.015c0,-0.053 0.01,-0.1 0.03,-0.141c0.02,-0.042 0.049,-0.074 0.086,-0.097c0.037,-0.024 0.078,-0.035 0.123,-0.035c0.072,0 0.127,0.023 0.167,0.069c0.039,0.046 0.058,0.111 0.058,0.195l0,0.047l-0.345,0c0.004,0.044 0.018,0.079 0.044,0.104c0.025,0.025 0.058,0.038 0.096,0.038c0.055,0 0.099,-0.022 0.133,-0.066l0.064,0.061c-0.021,0.032 -0.049,0.056 -0.085,0.074c-0.035,0.017 -0.075,0.026 -0.119,0.026Zm-0.014,-0.453c-0.032,0 -0.059,0.012 -0.079,0.034c-0.02,0.023 -0.032,0.055 -0.038,0.096l0.226,0l0,-0.009c-0.002,-0.04 -0.013,-0.07 -0.032,-0.09c-0.018,-0.021 -0.044,-0.031 -0.077,-0.031Z" style="fill:#f60948;fill-rule:nonzero;"/></g><g transform="matrix(40,0,0,40,493.3,820.248)"><path d="M0.278,-0.085c0.029,0 0.054,-0.009 0.074,-0.026c0.019,-0.017 0.03,-0.038 0.031,-0.064l0.112,0c-0.002,0.033 -0.012,0.064 -0.031,0.092c-0.019,0.029 -0.045,0.051 -0.078,0.068c-0.033,0.016 -0.069,0.025 -0.107,0.025c-0.074,0 -0.132,-0.024 -0.175,-0.072c-0.044,-0.048 -0.065,-0.114 -0.065,-0.198l0,-0.012c0,-0.081 0.021,-0.145 0.064,-0.194c0.043,-0.048 0.102,-0.072 0.176,-0.072c0.063,0 0.114,0.018 0.153,0.055c0.04,0.036 0.061,0.085 0.063,0.144l-0.112,0c-0.001,-0.03 -0.012,-0.055 -0.031,-0.075c-0.02,-0.019 -0.044,-0.029 -0.074,-0.029c-0.039,0 -0.068,0.014 -0.089,0.042c-0.021,0.028 -0.031,0.07 -0.032,0.127l0,0.019c0,0.057 0.011,0.1 0.031,0.128c0.021,0.028 0.051,0.042 0.09,0.042Z" style="fill:#f60948;fill-rule:nonzero;"/></g><g transform="matrix(40,0,0,40,514.237,820.248)"><path d="M0.209,-0.657l0,0.129l0.094,0l0,0.088l-0.094,0l0,0.294c0,0.021 0.004,0.035 0.012,0.044c0.008,0.009 0.023,0.014 0.043,0.014c0.014,0 0.028,-0.002 0.042,-0.005l0,0.092c-0.027,0.007 -0.053,0.011 -0.078,0.011c-0.092,0 -0.137,-0.051 -0.137,-0.151l0,-0.299l-0.087,0l0,-0.088l0.087,0l0,-0.129l0.118,0Z" style="fill:#f60948;fill-rule:nonzero;"/></g></g></g><defs><linearGradient id="_Linear1" x1="0" y1="0" x2="1" y2="0" gradientUnits="userSpaceOnUse" gradientTransform="matrix(5.83831e-15,-95.3468,95.3468,5.83831e-15,140.547,95.3468)"><stop offset="0" style="stop-color:#808080;stop-opacity:0.25"/><stop offset="0.54" style="stop-color:#808080;stop-opacity:0.12"/><stop offset="1" style="stop-color:#808080;stop-opacity:0.1"/></linearGradient></defs></svg>