<?xml version="1.0" encoding="UTF-8" standalone="no"?><!DOCTYPE svg PUBLIC "-//W3C//DTD SVG 1.1//EN" "http://www.w3.org/Graphics/SVG/1.1/DTD/svg11.dtd"><svg width="100%" height="100%" viewBox="0 0 871 315" version="1.1" xmlns="http://www.w3.org/2000/svg" xmlns:xlink="http://www.w3.org/1999/xlink" xml:space="preserve" xmlns:serif="http://www.serif.com/" style="fill-rule:evenodd;clip-rule:evenodd;stroke-linecap:round;stroke-linejoin:round;stroke-miterlimit:1.5;"><g id="Drawing_Tech_Setup"><path d="M741,207l-310,-120l-310,119.391" style="fill:none;stroke:#222739;stroke-opacity:0.4;stroke-width:4.5px;stroke-dasharray:13.5,13.5,0,0;"/><g><path d="M481.348,139.671l0,-135.293l-100.696,0l0,135.293l100.696,0Z" style="fill:#2f2e41;"/><rect x="363.354" y="0.247" width="135.293" height="53.704" style="fill:#3f3d56;"/><rect x="363.354" y="60.148" width="135.293" height="53.704" style="fill:#3f3d56;"/><rect x="363.354" y="120.049" width="135.293" height="53.704" style="fill:#3f3d56;"/><rect x="363.354" y="23.018" width="135.293" height="8.262" style="fill:#f60948;"/><rect x="363.354" y="82.919" width="135.293" height="8.262" style="fill:#f60948;"/><rect x="363.354" y="142.819" width="135.293" height="8.262" style="fill:#f60948;"/><circle cx="472.311" cy="7.993" r="3.098" style="fill:#f60948;"/><circle cx="483.155" cy="7.993" r="3.098" style="fill:#f60948;"/><circle cx="493.999" cy="7.993" r="3.098" style="fill:#f60948;"/><circle cx="472.311" cy="66.861" r="3.098" style="fill:#f60948;"/><circle cx="483.155" cy="66.861" r="3.098" style="fill:#f60948;"/><circle cx="493.999" cy="66.861" r="3.098" style="fill:#f60948;"/><circle cx="472.311" cy="125.729" r="3.098" style="fill:#f60948;"/><circle cx="483.155" cy="125.729" r="3.098" style="fill:#f60948;"/><circle cx="493.999" cy="125.729" r="3.098" style="fill:#f60948;"/></g><g><g><rect x="677.542" y="167.626" width="126.971" height="81.318" style="fill:#e6e6e6;"/><rect x="687.114" y="190.375" width="105.271" height="39.78" style="fill:#fff;"/><rect x="706.293" y="197.267" width="25.265" height="1.444" style="fill:#e6e6e6;"/><rect x="706.268" y="202.568" width="39.093" height="1.444" style="fill:#f60948;"/><rect x="706.268" y="207.562" width="30.679" height="1.444" style="fill:#e6e6e6;"/><rect x="706.268" y="212.557" width="18.046" height="1.444" style="fill:#e6e6e6;"/><rect x="706.268" y="217.551" width="27.07" height="1.444" style="fill:#e6e6e6;"/><rect x="694.836" y="196.852" width="2.887" height="2.887" style="fill:#e6e6e6;"/><rect x="694.836" y="201.846" width="2.887" height="2.887" style="fill:#f60948;"/><rect x="694.836" y="206.841" width="2.887" height="2.887" style="fill:#e6e6e6;"/><rect x="694.836" y="211.835" width="2.887" height="2.887" style="fill:#e6e6e6;"/><rect x="694.836" y="216.829" width="2.887" height="2.887" style="fill:#e6e6e6;"/><rect x="761.369" y="195.36" width="25.85" height="25.85" style="fill:#e6e6e6;"/><rect x="677.488" y="167.554" width="126.971" height="5.394" style="fill:#f60948;"/><circle cx="681.496" cy="170.311" r="1.083" style="fill:#fff;"/><circle cx="685.291" cy="170.311" r="1.083" style="fill:#fff;"/><circle cx="689.086" cy="170.311" r="1.083" style="fill:#fff;"/></g><path d="M615.229,294.129c1.162,-1.348 2.631,-2.022 4.409,-2.022c3.379,0 5.092,1.929 5.141,5.787l0,10.356l-3.559,0l0,-10.225c0,-1.093 -0.237,-1.867 -0.711,-2.321c-0.473,-0.454 -1.169,-0.682 -2.087,-0.682c-1.426,0 -2.49,0.635 -3.193,1.905l0,11.323l-3.56,0l0,-22.5l3.56,0l0,8.379Z" style="fill:#f60948;fill-rule:nonzero;"/><path d="M632.836,288.548l0,3.852l2.798,0l0,2.637l-2.798,0l0,8.848c0,0.605 0.12,1.042 0.359,1.311c0.239,0.268 0.666,0.403 1.282,0.403c0.41,0 0.825,-0.049 1.245,-0.147l0,2.754c-0.811,0.225 -1.592,0.337 -2.344,0.337c-2.734,0 -4.102,-1.509 -4.102,-4.526l0,-8.98l-2.607,0l0,-2.637l2.607,0l0,-3.852l3.56,0Z" style="fill:#f60948;fill-rule:nonzero;"/><path d="M642.812,288.548l0,3.852l2.797,0l0,2.637l-2.797,0l0,8.848c0,0.605 0.119,1.042 0.358,1.311c0.24,0.268 0.667,0.403 1.282,0.403c0.41,0 0.825,-0.049 1.245,-0.147l0,2.754c-0.81,0.225 -1.592,0.337 -2.343,0.337c-2.735,0 -4.102,-1.509 -4.102,-4.526l0,-8.98l-2.607,0l0,-2.637l2.607,0l0,-3.852l3.56,0Z" style="fill:#f60948;fill-rule:nonzero;"/><path d="M662.206,300.486c0,2.451 -0.557,4.407 -1.67,5.867c-1.113,1.46 -2.607,2.19 -4.482,2.19c-1.739,0 -3.13,-0.571 -4.175,-1.714l0,7.515l-3.56,0l0,-21.944l3.282,0l0.146,1.612c1.045,-1.27 2.466,-1.905 4.263,-1.905c1.933,0 3.449,0.721 4.548,2.161c1.099,1.44 1.648,3.44 1.648,5.999l0,0.219Zm-3.545,-0.307c0,-1.582 -0.315,-2.837 -0.945,-3.765c-0.63,-0.928 -1.53,-1.392 -2.702,-1.392c-1.455,0 -2.5,0.601 -3.135,1.802l0,7.031c0.644,1.231 1.699,1.846 3.164,1.846c1.133,0 2.019,-0.456 2.659,-1.369c0.639,-0.914 0.959,-2.298 0.959,-4.153Z" style="fill:#f60948;fill-rule:nonzero;"/><path d="M674.101,303.943c0,-0.634 -0.262,-1.118 -0.784,-1.45c-0.523,-0.332 -1.389,-0.625 -2.6,-0.879c-1.211,-0.254 -2.222,-0.576 -3.032,-0.967c-1.778,-0.859 -2.666,-2.104 -2.666,-3.735c0,-1.367 0.576,-2.51 1.728,-3.428c1.152,-0.918 2.617,-1.377 4.395,-1.377c1.894,0 3.425,0.469 4.592,1.407c1.167,0.937 1.75,2.153 1.75,3.647l-3.559,0c0,-0.683 -0.254,-1.252 -0.762,-1.706c-0.508,-0.455 -1.182,-0.682 -2.021,-0.682c-0.782,0 -1.419,0.181 -1.912,0.542c-0.493,0.362 -0.74,0.845 -0.74,1.451c0,0.547 0.23,0.971 0.689,1.274c0.459,0.303 1.386,0.608 2.783,0.916c1.396,0.307 2.493,0.673 3.288,1.098c0.796,0.425 1.387,0.935 1.773,1.531c0.386,0.596 0.579,1.318 0.579,2.168c0,1.426 -0.591,2.58 -1.773,3.464c-1.182,0.884 -2.729,1.326 -4.643,1.326c-1.299,0 -2.457,-0.234 -3.472,-0.703c-1.016,-0.469 -1.807,-1.113 -2.373,-1.934c-0.567,-0.82 -0.85,-1.704 -0.85,-2.651l3.457,0c0.049,0.84 0.366,1.487 0.952,1.941c0.586,0.454 1.363,0.681 2.329,0.681c0.938,0 1.651,-0.178 2.139,-0.535c0.488,-0.356 0.733,-0.822 0.733,-1.399Z" style="fill:#f60948;fill-rule:nonzero;"/><path d="M682.846,304.5c0.664,0 1.176,0.188 1.538,0.564c0.361,0.376 0.542,0.847 0.542,1.414c0,0.556 -0.181,1.018 -0.542,1.384c-0.362,0.366 -0.874,0.549 -1.538,0.549c-0.635,0 -1.138,-0.181 -1.509,-0.542c-0.371,-0.361 -0.557,-0.825 -0.557,-1.391c0,-0.567 0.181,-1.038 0.542,-1.414c0.362,-0.376 0.869,-0.564 1.524,-0.564Zm0,-12.437c0.664,0 1.176,0.188 1.538,0.564c0.361,0.376 0.542,0.848 0.542,1.414c0,0.557 -0.181,1.018 -0.542,1.384c-0.362,0.367 -0.874,0.55 -1.538,0.55c-0.635,0 -1.138,-0.181 -1.509,-0.542c-0.371,-0.362 -0.557,-0.826 -0.557,-1.392c0,-0.566 0.181,-1.038 0.542,-1.414c0.362,-0.376 0.869,-0.564 1.524,-0.564Z" style="fill:#f60948;fill-rule:nonzero;"/><path d="M689.657,310.081l-2.798,0l8.394,-23.159l2.798,0l-8.394,23.159Z" style="fill:#f60948;fill-rule:nonzero;"/><path d="M697.89,310.081l-2.798,0l8.393,-23.159l2.798,0l-8.393,23.159Z" style="fill:#f60948;fill-rule:nonzero;"/><path d="M712.26,294.129c1.162,-1.348 2.632,-2.022 4.409,-2.022c3.379,0 5.093,1.929 5.142,5.787l0,10.356l-3.56,0l0,-10.225c0,-1.093 -0.237,-1.867 -0.71,-2.321c-0.474,-0.454 -1.17,-0.682 -2.088,-0.682c-1.426,0 -2.49,0.635 -3.193,1.905l0,11.323l-3.56,0l0,-22.5l3.56,0l0,8.379Z" style="fill:#f60948;fill-rule:nonzero;"/><path d="M732.387,308.543c-2.256,0 -4.085,-0.71 -5.486,-2.131c-1.401,-1.421 -2.102,-3.313 -2.102,-5.677l0,-0.439c0,-1.582 0.305,-2.996 0.915,-4.241c0.611,-1.245 1.468,-2.214 2.571,-2.908c1.104,-0.693 2.334,-1.04 3.692,-1.04c2.158,0 3.825,0.689 5.002,2.066c1.177,1.377 1.765,3.325 1.765,5.845l0,1.435l-10.356,0c0.107,1.309 0.544,2.344 1.311,3.106c0.766,0.761 1.731,1.142 2.893,1.142c1.631,0 2.959,-0.659 3.984,-1.977l1.919,1.831c-0.635,0.947 -1.482,1.682 -2.541,2.204c-1.06,0.523 -2.249,0.784 -3.567,0.784Zm-0.425,-13.579c-0.977,0 -1.765,0.342 -2.366,1.025c-0.6,0.684 -0.984,1.636 -1.15,2.857l6.783,0l0,-0.264c-0.079,-1.191 -0.396,-2.092 -0.953,-2.703c-0.556,-0.61 -1.328,-0.915 -2.314,-0.915Z" style="fill:#f60948;fill-rule:nonzero;"/><rect x="741.732" y="285.75" width="3.56" height="22.5" style="fill:#f60948;fill-rule:nonzero;"/><path d="M763.046,300.486c0,2.451 -0.557,4.407 -1.67,5.867c-1.113,1.46 -2.607,2.19 -4.482,2.19c-1.739,0 -3.13,-0.571 -4.175,-1.714l0,7.515l-3.56,0l0,-21.944l3.281,0l0.147,1.612c1.045,-1.27 2.466,-1.905 4.263,-1.905c1.933,0 3.449,0.721 4.548,2.161c1.099,1.44 1.648,3.44 1.648,5.999l0,0.219Zm-3.545,-0.307c0,-1.582 -0.315,-2.837 -0.945,-3.765c-0.63,-0.928 -1.531,-1.392 -2.702,-1.392c-1.456,0 -2.5,0.601 -3.135,1.802l0,7.031c0.644,1.231 1.699,1.846 3.164,1.846c1.133,0 2.019,-0.456 2.659,-1.369c0.639,-0.914 0.959,-2.298 0.959,-4.153Z" style="fill:#f60948;fill-rule:nonzero;"/><path d="M773.036,308.543c-2.256,0 -4.084,-0.71 -5.486,-2.131c-1.401,-1.421 -2.102,-3.313 -2.102,-5.677l0,-0.439c0,-1.582 0.305,-2.996 0.916,-4.241c0.61,-1.245 1.467,-2.214 2.571,-2.908c1.103,-0.693 2.334,-1.04 3.691,-1.04c2.158,0 3.826,0.689 5.002,2.066c1.177,1.377 1.766,3.325 1.766,5.845l0,1.435l-10.357,0c0.108,1.309 0.545,2.344 1.311,3.106c0.767,0.761 1.731,1.142 2.893,1.142c1.631,0 2.959,-0.659 3.985,-1.977l1.919,1.831c-0.635,0.947 -1.482,1.682 -2.542,2.204c-1.06,0.523 -2.249,0.784 -3.567,0.784Zm-0.425,-13.579c-0.976,0 -1.765,0.342 -2.365,1.025c-0.601,0.684 -0.984,1.636 -1.15,2.857l6.782,0l0,-0.264c-0.078,-1.191 -0.396,-2.092 -0.952,-2.703c-0.557,-0.61 -1.328,-0.915 -2.315,-0.915Z" style="fill:#f60948;fill-rule:nonzero;"/><path d="M790.453,295.652c-0.469,-0.078 -0.952,-0.117 -1.45,-0.117c-1.631,0 -2.73,0.625 -3.296,1.875l0,10.84l-3.56,0l0,-15.85l3.399,0l0.088,1.773c0.859,-1.377 2.051,-2.066 3.574,-2.066c0.508,0 0.928,0.069 1.26,0.205l-0.015,3.34Z" style="fill:#f60948;fill-rule:nonzero;"/><rect x="792.929" y="285.75" width="3.56" height="22.5" style="fill:#f60948;fill-rule:nonzero;"/><path d="M804.149,308.25l-3.559,0l0,-15.85l3.559,0l0,15.85Zm-3.779,-19.966c0,-0.547 0.173,-1.001 0.52,-1.362c0.347,-0.361 0.842,-0.542 1.487,-0.542c0.644,0 1.143,0.181 1.494,0.542c0.352,0.361 0.527,0.815 0.527,1.362c0,0.537 -0.175,0.984 -0.527,1.341c-0.351,0.356 -0.85,0.534 -1.494,0.534c-0.645,0 -1.14,-0.178 -1.487,-0.534c-0.347,-0.357 -0.52,-0.804 -0.52,-1.341Z" style="fill:#f60948;fill-rule:nonzero;"/><path d="M811.327,292.4l0.103,1.831c1.172,-1.416 2.71,-2.124 4.614,-2.124c3.301,0 4.98,1.89 5.039,5.669l0,10.474l-3.56,0l0,-10.269c0,-1.005 -0.217,-1.75 -0.651,-2.233c-0.435,-0.484 -1.145,-0.726 -2.132,-0.726c-1.435,0 -2.505,0.65 -3.208,1.949l0,11.279l-3.559,0l0,-15.85l3.354,0Z" style="fill:#f60948;fill-rule:nonzero;"/><path d="M831.688,308.543c-2.255,0 -4.084,-0.71 -5.485,-2.131c-1.402,-1.421 -2.102,-3.313 -2.102,-5.677l0,-0.439c0,-1.582 0.305,-2.996 0.915,-4.241c0.61,-1.245 1.467,-2.214 2.571,-2.908c1.103,-0.693 2.334,-1.04 3.691,-1.04c2.159,0 3.826,0.689 5.003,2.066c1.177,1.377 1.765,3.325 1.765,5.845l0,1.435l-10.357,0c0.108,1.309 0.545,2.344 1.311,3.106c0.767,0.761 1.731,1.142 2.894,1.142c1.63,0 2.959,-0.659 3.984,-1.977l1.919,1.831c-0.635,0.947 -1.482,1.682 -2.542,2.204c-1.059,0.523 -2.248,0.784 -3.567,0.784Zm-0.424,-13.579c-0.977,0 -1.765,0.342 -2.366,1.025c-0.601,0.684 -0.984,1.636 -1.15,2.857l6.782,0l0,-0.264c-0.078,-1.191 -0.395,-2.092 -0.952,-2.703c-0.557,-0.61 -1.328,-0.915 -2.314,-0.915Z" style="fill:#f60948;fill-rule:nonzero;"/><path d="M843.026,304.5c0.664,0 1.177,0.188 1.538,0.564c0.362,0.376 0.542,0.847 0.542,1.414c0,0.556 -0.18,1.018 -0.542,1.384c-0.361,0.366 -0.874,0.549 -1.538,0.549c-0.634,0 -1.137,-0.181 -1.508,-0.542c-0.372,-0.361 -0.557,-0.825 -0.557,-1.391c0,-0.567 0.181,-1.038 0.542,-1.414c0.361,-0.376 0.869,-0.564 1.523,-0.564Z" style="fill:#f60948;fill-rule:nonzero;"/><path d="M852.973,308.25l-3.56,0l0,-15.85l3.56,0l0,15.85Zm-3.78,-19.966c0,-0.547 0.174,-1.001 0.52,-1.362c0.347,-0.361 0.843,-0.542 1.487,-0.542c0.645,0 1.143,0.181 1.494,0.542c0.352,0.361 0.528,0.815 0.528,1.362c0,0.537 -0.176,0.984 -0.528,1.341c-0.351,0.356 -0.849,0.534 -1.494,0.534c-0.644,0 -1.14,-0.178 -1.487,-0.534c-0.346,-0.357 -0.52,-0.804 -0.52,-1.341Z" style="fill:#f60948;fill-rule:nonzero;"/><path d="M856.181,300.179c0,-1.553 0.307,-2.952 0.923,-4.197c0.615,-1.245 1.479,-2.202 2.592,-2.871c1.114,-0.669 2.393,-1.004 3.838,-1.004c2.139,0 3.875,0.689 5.208,2.066c1.333,1.377 2.053,3.203 2.16,5.478l0.015,0.835c0,1.563 -0.3,2.959 -0.901,4.19c-0.6,1.23 -1.46,2.182 -2.578,2.856c-1.118,0.674 -2.41,1.011 -3.875,1.011c-2.236,0 -4.025,-0.745 -5.368,-2.234c-1.343,-1.489 -2.014,-3.474 -2.014,-5.955l0,-0.175Zm3.559,0.307c0,1.631 0.337,2.908 1.011,3.831c0.674,0.923 1.611,1.384 2.812,1.384c1.202,0 2.137,-0.469 2.806,-1.406c0.669,-0.938 1.003,-2.31 1.003,-4.116c0,-1.602 -0.344,-2.871 -1.033,-3.809c-0.688,-0.937 -1.623,-1.406 -2.805,-1.406c-1.162,0 -2.085,0.461 -2.768,1.384c-0.684,0.923 -1.026,2.302 -1.026,4.138Z" style="fill:#f60948;fill-rule:nonzero;"/></g><g><path d="M9.181,296.517l5.567,0l0,3.252l-5.567,0l0,6.342l-3.457,0l0,-6.342l-5.596,0l0,-3.252l5.596,0l0,-5.933l3.457,0l0,5.933Z" style="fill:#f60948;fill-rule:nonzero;"/><path d="M29.484,300.647l2.651,0l0,2.857l-2.651,0l0,4.746l-3.56,0l0,-4.746l-9.214,0l-0.102,-2.168l9.199,-14.414l3.677,0l0,13.725Zm-9.141,0l5.581,0l0,-8.906l-0.263,0.469l-5.318,8.437Z" style="fill:#f60948;fill-rule:nonzero;"/><path d="M44.586,299.329c-1.191,1.26 -2.583,1.89 -4.174,1.89c-1.875,0 -3.37,-0.657 -4.483,-1.97c-1.113,-1.314 -1.67,-3.04 -1.67,-5.179c0,-1.406 0.283,-2.68 0.85,-3.823c0.566,-1.143 1.372,-2.031 2.417,-2.666c1.045,-0.635 2.256,-0.952 3.633,-0.952c2.148,0 3.852,0.801 5.112,2.402c1.26,1.602 1.89,3.745 1.89,6.431l0,0.996c0,3.848 -0.869,6.782 -2.608,8.804c-1.738,2.021 -4.331,3.047 -7.778,3.076l-0.425,0l0,-2.944l0.513,0c2.099,-0.03 3.711,-0.535 4.834,-1.517c1.123,-0.981 1.753,-2.497 1.889,-4.548Zm-3.427,-0.893c0.713,0 1.382,-0.206 2.007,-0.616c0.625,-0.41 1.108,-0.976 1.45,-1.699l0,-1.392c0,-1.572 -0.323,-2.836 -0.967,-3.793c-0.645,-0.957 -1.48,-1.436 -2.505,-1.436c-1.025,0 -1.843,0.422 -2.454,1.267c-0.61,0.845 -0.915,1.912 -0.915,3.201c0,1.338 0.308,2.417 0.923,3.237c0.615,0.82 1.435,1.231 2.461,1.231Z" style="fill:#f60948;fill-rule:nonzero;"/><path d="M63.131,295.96l2.168,0c1.094,-0.01 1.961,-0.293 2.6,-0.85c0.64,-0.556 0.96,-1.362 0.96,-2.417c0,-1.015 -0.266,-1.804 -0.798,-2.365c-0.533,-0.562 -1.346,-0.843 -2.439,-0.843c-0.957,0 -1.744,0.276 -2.359,0.828c-0.615,0.552 -0.923,1.272 -0.923,2.161l-3.559,0c0,-1.094 0.29,-2.09 0.871,-2.989c0.581,-0.898 1.392,-1.599 2.432,-2.102c1.04,-0.503 2.205,-0.754 3.494,-0.754c2.129,0 3.801,0.535 5.017,1.604c1.216,1.069 1.823,2.556 1.823,4.46c0,0.957 -0.305,1.858 -0.915,2.703c-0.61,0.845 -1.399,1.482 -2.366,1.912c1.172,0.4 2.063,1.03 2.674,1.889c0.61,0.86 0.915,1.885 0.915,3.076c0,1.915 -0.657,3.438 -1.97,4.571c-1.314,1.133 -3.04,1.699 -5.178,1.699c-2.051,0 -3.731,-0.547 -5.039,-1.641c-1.309,-1.093 -1.963,-2.548 -1.963,-4.365l3.559,0c0,0.938 0.315,1.699 0.945,2.285c0.63,0.586 1.477,0.879 2.542,0.879c1.103,0 1.972,-0.293 2.607,-0.879c0.635,-0.586 0.952,-1.435 0.952,-2.549c0,-1.123 -0.332,-1.987 -0.996,-2.592c-0.664,-0.606 -1.65,-0.909 -2.959,-0.909l-2.095,0l0,-2.812Z" style="fill:#f60948;fill-rule:nonzero;"/><path d="M89.967,299.271c0,3.066 -0.573,5.378 -1.721,6.936c-1.147,1.557 -2.893,2.336 -5.237,2.336c-2.304,0 -4.04,-0.759 -5.207,-2.278c-1.167,-1.518 -1.765,-3.767 -1.795,-6.745l0,-3.692c0,-3.066 0.574,-5.366 1.722,-6.899c1.147,-1.533 2.897,-2.3 5.251,-2.3c2.334,0 4.075,0.747 5.222,2.241c1.148,1.494 1.736,3.731 1.765,6.709l0,3.692Zm-3.559,-3.985c0,-2.002 -0.274,-3.469 -0.821,-4.402c-0.546,-0.932 -1.416,-1.399 -2.607,-1.399c-1.162,0 -2.017,0.442 -2.563,1.326c-0.547,0.884 -0.835,2.263 -0.865,4.138l0,4.834c0,1.992 0.279,3.477 0.835,4.453c0.557,0.977 1.431,1.465 2.622,1.465c1.143,0 1.988,-0.451 2.534,-1.355c0.547,-0.903 0.835,-2.317 0.865,-4.241l0,-4.819Z" style="fill:#f60948;fill-rule:nonzero;"/><path d="M114.928,308.25l-14.341,0l0,-2.446l7.105,-7.749c1.025,-1.143 1.755,-2.097 2.19,-2.864c0.434,-0.767 0.652,-1.536 0.652,-2.307c0,-1.016 -0.286,-1.836 -0.857,-2.461c-0.572,-0.625 -1.341,-0.938 -2.307,-0.938c-1.153,0 -2.046,0.352 -2.681,1.055c-0.635,0.703 -0.952,1.665 -0.952,2.886l-3.56,0c0,-1.299 0.296,-2.468 0.886,-3.509c0.591,-1.04 1.436,-1.848 2.535,-2.424c1.098,-0.576 2.365,-0.864 3.801,-0.864c2.07,0 3.704,0.52 4.9,1.56c1.196,1.04 1.794,2.478 1.794,4.314c0,1.064 -0.3,2.18 -0.901,3.347c-0.6,1.167 -1.584,2.493 -2.951,3.977l-5.215,5.581l9.902,0l0,2.842Z" style="fill:#f60948;fill-rule:nonzero;"/><path d="M118.59,297.674l1.158,-10.752l11.455,0l0,3.076l-8.496,0l-0.586,5.098c0.986,-0.567 2.099,-0.85 3.339,-0.85c2.032,0 3.611,0.65 4.739,1.948c1.128,1.299 1.692,3.047 1.692,5.244c0,2.168 -0.625,3.895 -1.875,5.179c-1.25,1.284 -2.964,1.926 -5.141,1.926c-1.954,0 -3.572,-0.554 -4.856,-1.663c-1.285,-1.108 -1.98,-2.57 -2.088,-4.387l3.443,0c0.136,1.035 0.507,1.829 1.113,2.381c0.605,0.551 1.396,0.827 2.373,0.827c1.094,0 1.946,-0.39 2.556,-1.172c0.61,-0.781 0.916,-1.845 0.916,-3.193c0,-1.299 -0.337,-2.327 -1.011,-3.084c-0.674,-0.756 -1.602,-1.135 -2.783,-1.135c-0.645,0 -1.192,0.086 -1.641,0.257c-0.449,0.17 -0.938,0.505 -1.465,1.003l-2.842,-0.703Z" style="fill:#f60948;fill-rule:nonzero;"/><path d="M135.641,297.674l1.157,-10.752l11.455,0l0,3.076l-8.496,0l-0.586,5.098c0.987,-0.567 2.1,-0.85 3.34,-0.85c2.031,0 3.611,0.65 4.739,1.948c1.128,1.299 1.692,3.047 1.692,5.244c0,2.168 -0.625,3.895 -1.875,5.179c-1.25,1.284 -2.964,1.926 -5.142,1.926c-1.953,0 -3.571,-0.554 -4.856,-1.663c-1.284,-1.108 -1.98,-2.57 -2.087,-4.387l3.442,0c0.137,1.035 0.508,1.829 1.114,2.381c0.605,0.551 1.396,0.827 2.373,0.827c1.093,0 1.945,-0.39 2.556,-1.172c0.61,-0.781 0.915,-1.845 0.915,-3.193c0,-1.299 -0.337,-2.327 -1.01,-3.084c-0.674,-0.756 -1.602,-1.135 -2.784,-1.135c-0.644,0 -1.191,0.086 -1.64,0.257c-0.449,0.17 -0.938,0.505 -1.465,1.003l-2.842,-0.703Z" style="fill:#f60948;fill-rule:nonzero;"/><path d="M152.692,297.674l1.157,-10.752l11.455,0l0,3.076l-8.496,0l-0.586,5.098c0.986,-0.567 2.1,-0.85 3.34,-0.85c2.031,0 3.611,0.65 4.739,1.948c1.128,1.299 1.692,3.047 1.692,5.244c0,2.168 -0.625,3.895 -1.875,5.179c-1.25,1.284 -2.964,1.926 -5.142,1.926c-1.953,0 -3.572,-0.554 -4.856,-1.663c-1.284,-1.108 -1.98,-2.57 -2.087,-4.387l3.442,0c0.137,1.035 0.508,1.829 1.113,2.381c0.606,0.551 1.397,0.827 2.373,0.827c1.094,0 1.946,-0.39 2.557,-1.172c0.61,-0.781 0.915,-1.845 0.915,-3.193c0,-1.299 -0.337,-2.327 -1.011,-3.084c-0.673,-0.756 -1.601,-1.135 -2.783,-1.135c-0.644,0 -1.191,0.086 -1.64,0.257c-0.45,0.17 -0.938,0.505 -1.465,1.003l-2.842,-0.703Z" style="fill:#f60948;fill-rule:nonzero;"/><path d="M177.213,297.674l1.158,-10.752l11.455,0l0,3.076l-8.496,0l-0.586,5.098c0.986,-0.567 2.099,-0.85 3.339,-0.85c2.032,0 3.611,0.65 4.739,1.948c1.128,1.299 1.692,3.047 1.692,5.244c0,2.168 -0.625,3.895 -1.875,5.179c-1.25,1.284 -2.964,1.926 -5.141,1.926c-1.954,0 -3.572,-0.554 -4.856,-1.663c-1.285,-1.108 -1.98,-2.57 -2.088,-4.387l3.443,0c0.136,1.035 0.507,1.829 1.113,2.381c0.605,0.551 1.396,0.827 2.373,0.827c1.094,0 1.946,-0.39 2.556,-1.172c0.61,-0.781 0.916,-1.845 0.916,-3.193c0,-1.299 -0.337,-2.327 -1.011,-3.084c-0.674,-0.756 -1.602,-1.135 -2.783,-1.135c-0.645,0 -1.192,0.086 -1.641,0.257c-0.449,0.17 -0.937,0.505 -1.465,1.003l-2.842,-0.703Z" style="fill:#f60948;fill-rule:nonzero;"/><path d="M197.428,295.96l2.168,0c1.094,-0.01 1.961,-0.293 2.6,-0.85c0.64,-0.556 0.96,-1.362 0.96,-2.417c0,-1.015 -0.266,-1.804 -0.799,-2.365c-0.532,-0.562 -1.345,-0.843 -2.439,-0.843c-0.957,0 -1.743,0.276 -2.358,0.828c-0.615,0.552 -0.923,1.272 -0.923,2.161l-3.559,0c0,-1.094 0.29,-2.09 0.871,-2.989c0.581,-0.898 1.392,-1.599 2.432,-2.102c1.04,-0.503 2.204,-0.754 3.494,-0.754c2.128,0 3.801,0.535 5.017,1.604c1.215,1.069 1.823,2.556 1.823,4.46c0,0.957 -0.305,1.858 -0.915,2.703c-0.611,0.845 -1.399,1.482 -2.366,1.912c1.172,0.4 2.063,1.03 2.673,1.889c0.611,0.86 0.916,1.885 0.916,3.076c0,1.915 -0.657,3.438 -1.97,4.571c-1.314,1.133 -3.04,1.699 -5.178,1.699c-2.051,0 -3.731,-0.547 -5.04,-1.641c-1.308,-1.093 -1.962,-2.548 -1.962,-4.365l3.559,0c0,0.938 0.315,1.699 0.945,2.285c0.63,0.586 1.477,0.879 2.541,0.879c1.104,0 1.973,-0.293 2.608,-0.879c0.635,-0.586 0.952,-1.435 0.952,-2.549c0,-1.123 -0.332,-1.987 -0.996,-2.592c-0.664,-0.606 -1.65,-0.909 -2.959,-0.909l-2.095,0l0,-2.812Z" style="fill:#f60948;fill-rule:nonzero;"/><path d="M224.264,299.271c0,3.066 -0.574,5.378 -1.721,6.936c-1.147,1.557 -2.893,2.336 -5.237,2.336c-2.305,0 -4.04,-0.759 -5.207,-2.278c-1.167,-1.518 -1.766,-3.767 -1.795,-6.745l0,-3.692c0,-3.066 0.574,-5.366 1.721,-6.899c1.148,-1.533 2.898,-2.3 5.252,-2.3c2.334,0 4.075,0.747 5.222,2.241c1.147,1.494 1.736,3.731 1.765,6.709l0,3.692Zm-3.559,-3.985c0,-2.002 -0.274,-3.469 -0.821,-4.402c-0.547,-0.932 -1.416,-1.399 -2.607,-1.399c-1.162,0 -2.017,0.442 -2.564,1.326c-0.546,0.884 -0.835,2.263 -0.864,4.138l0,4.834c0,1.992 0.278,3.477 0.835,4.453c0.557,0.977 1.431,1.465 2.622,1.465c1.143,0 1.987,-0.451 2.534,-1.355c0.547,-0.903 0.835,-2.317 0.865,-4.241l0,-4.819Z" style="fill:#f60948;fill-rule:nonzero;"/><path d="M228.366,297.674l1.157,-10.752l11.455,0l0,3.076l-8.496,0l-0.586,5.098c0.986,-0.567 2.1,-0.85 3.34,-0.85c2.031,0 3.611,0.65 4.739,1.948c1.128,1.299 1.692,3.047 1.692,5.244c0,2.168 -0.625,3.895 -1.875,5.179c-1.25,1.284 -2.964,1.926 -5.142,1.926c-1.953,0 -3.572,-0.554 -4.856,-1.663c-1.284,-1.108 -1.98,-2.57 -2.087,-4.387l3.442,0c0.137,1.035 0.508,1.829 1.113,2.381c0.606,0.551 1.397,0.827 2.373,0.827c1.094,0 1.946,-0.39 2.556,-1.172c0.611,-0.781 0.916,-1.845 0.916,-3.193c0,-1.299 -0.337,-2.327 -1.011,-3.084c-0.674,-0.756 -1.601,-1.135 -2.783,-1.135c-0.645,0 -1.191,0.086 -1.641,0.257c-0.449,0.17 -0.937,0.505 -1.464,1.003l-2.842,-0.703Z" style="fill:#f60948;fill-rule:nonzero;"/><g><path d="M148.224,174.696c0,-9.078 -7.37,-16.448 -16.448,-16.448l-21.552,0c-9.078,0 -16.448,7.37 -16.448,16.448l0,67.104c0,9.078 7.37,16.448 16.448,16.448l21.552,0c9.078,0 16.448,-7.37 16.448,-16.448l0,-67.104Z" style="fill:#222739;"/><rect x="99.923" y="165.317" width="42.154" height="81.379" style="fill:#e6e6e6;"/><ellipse cx="121" cy="252.559" rx="3.361" ry="3.448" style="fill:#e6e6e6;"/><ellipse cx="114.614" cy="161.524" rx="0.672" ry="0.69" style="fill:#e6e6e6;"/><path d="M128.058,161.524c0,-0.285 -0.232,-0.517 -0.517,-0.517l-9.385,0c-0.285,0 -0.517,0.232 -0.517,0.517c0,0.286 0.232,0.517 0.517,0.517l9.385,0c0.285,0 0.517,-0.231 0.517,-0.517Z" style="fill:#e6e6e6;"/><path d="M102.325,167.419l39.752,0l0,-2.102l-42.154,0l0,81.38l2.402,0l0,-79.278Z" style="fill-opacity:0.2;fill-rule:nonzero;"/></g></g></g></svg>